<svg xmlns="http://www.w3.org/2000/svg" viewBox="0 0 135 50"><style>.st0{fill:#fff}.st1{fill:none}</style><g id="Layer_2"><path d="M15.85 45.01v3.97H.36c.95-1.05 1.77-1.9 2.38-2.5 1.35-1.34 2.21-2.07 4.28-4.12.4-.39 1.27-1.26 2.2-2.52.55-.74.9-1.32 1.15-2.08.32-.98.27-1.68.26-1.84-.04-.52-.09-1.09-.51-1.6-.68-.83-1.78-.8-1.93-.8-.23.01-.95.07-1.55.62-.5.45-.65 1-.74 1.31-.12.43-.13.79-.12 1.04H.73c-.02-.26-.03-.64.03-1.09.3-2.32 2.02-3.76 2.4-4.07 2.01-1.68 4.34-1.68 5.2-1.67.98.01 3.43.04 5.38 1.96.27.27 2.27 2.28 2.05 5.1-.13 1.75-1.04 2.9-2.32 4.51A17.206 17.206 0 0 1 9.32 45c2.17.01 4.35.01 6.53.01zm21.62-8.61v-5.74c-.51-.24-1.23-.52-2.13-.72-.69-.16-2.54-.5-4.74 0-.89.2-4.11.98-6.24 4.06-.42.61-1.75 2.58-1.72 5.4.04 4.09 2.9 6.63 3.54 7.17 1.86 1.56 3.8 1.99 4.6 2.16 3.17.66 5.74-.26 6.76-.69v-5.69c-.33.35-.89.85-1.7 1.24-.23.11-1.28.6-2.74.59-.64-.01-1.77-.02-2.88-.71-1.41-.87-2.3-2.54-2.28-4.26 0-.22.06-2.21 1.59-3.59.75-.67 1.55-.93 1.91-1.04.97-.3 1.8-.27 2.24-.23.34.03.92.13 1.59.41 1.11.47 1.82 1.19 2.2 1.64zm12.41 8.02c-2.83-.08-5.4-2.52-5.22-5.42.17-2.71 2.68-4.69 5.23-4.75 2.74-.07 5.46 2.04 5.55 4.9.11 2.97-2.66 5.37-5.56 5.27zm.3-14.79c-6.15-.22-11 4.66-10.94 9.94.07 5.57 5.58 9.47 10.71 9.5 5.14.04 10.83-3.84 10.85-9.59.02-5.27-4.7-10-10.62-9.85z" class="st0"/><path d="M49.88 44.42c-2.83-.08-5.4-2.52-5.22-5.42.17-2.71 2.68-4.69 5.23-4.75 2.74-.07 5.45 2.04 5.55 4.9.1 2.97-2.66 5.37-5.56 5.27zm.23-9.94c-3.08-.11-5.5 2.33-5.47 4.97.04 2.78 2.79 4.73 5.35 4.75 2.57.02 5.41-1.92 5.42-4.79.02-2.63-2.33-5-5.3-4.93z" class="st0"/><path d="M55.44 39.15c.11 2.96-2.66 5.36-5.56 5.27-2.83-.08-5.4-2.52-5.22-5.42.17-2.71 2.68-4.69 5.23-4.75 2.74-.07 5.46 2.04 5.55 4.9z" class="st1"/><path d="M72.94 44.42c-2.83-.08-5.4-2.52-5.22-5.42.17-2.71 2.68-4.69 5.23-4.75 2.74-.07 5.46 2.04 5.55 4.9.11 2.97-2.66 5.37-5.56 5.27zm.3-14.79c-6.15-.22-11 4.66-10.94 9.94.07 5.57 5.58 9.47 10.71 9.5 5.14.04 10.83-3.84 10.85-9.59.02-5.27-4.7-10-10.62-9.85z" class="st0"/><path d="M72.94 44.42c-2.83-.08-5.4-2.52-5.22-5.42.17-2.71 2.68-4.69 5.23-4.75 2.74-.07 5.45 2.04 5.55 4.9.1 2.97-2.66 5.37-5.56 5.27zm.23-9.94c-3.08-.11-5.5 2.33-5.47 4.97.04 2.78 2.79 4.73 5.35 4.75 2.57.02 5.41-1.92 5.42-4.79.02-2.63-2.34-5-5.3-4.93z" class="st0"/><path d="M78.5 39.15c.11 2.96-2.66 5.36-5.56 5.27-2.83-.08-5.4-2.52-5.22-5.42.17-2.71 2.68-4.69 5.23-4.75 2.74-.07 5.45 2.04 5.55 4.9z" class="st1"/><path d="M100.43 32.99c-.69-1.09-1.59-1.7-2.09-2-.07-.04-.14-.07-.16-.08a6.365 6.365 0 0 0-2.46-.7c-2.26-.19-5.44-.11-5.44-.11-.88.03-2.21.05-3.86.05v18.24c1.71-.01 3.43-.03 5.14-.05v-5.89c.61.01 1.49.02 2.55 0 1.37-.03 1.77-.09 1.94-.11.69-.11 1.65-.26 2.59-.83 1.28-.78 1.87-1.96 2.08-2.42.94-1.9.85-4.28-.29-6.1zm-4.65 3.4c-.02.42-.04 1-.48 1.5-.31.34-.69.48-.81.52-.28.1-.52.11-1.02.13-.25.01-.38.01-.71 0h-1.21v-4.43h2.06c.25 0 .72.03 1.21.31.16.09.41.23.62.5.38.49.35 1.07.34 1.47z" class="st0"/><path d="M95.78 36.39c-.02.42-.04 1-.48 1.5-.31.34-.69.48-.81.52-.28.1-.52.11-1.02.13-.25.01-.38.01-.71 0h-1.21v-4.43h2.06c.25 0 .72.03 1.21.31.16.09.41.23.62.5.38.49.35 1.07.34 1.47z" class="st1"/><path d="M103.4 30.23h11.25v4.18h-6v2.79h5.66v4.18h-5.61v2.94h5.95v4.11H103.4zM128 41.01c2.49-.67 4.2-2.86 4.21-5.24.02-2.79-2.3-5.29-5.36-5.5-3.01-.03-6.03-.06-9.04-.08v18.24h5.27v-6.82c1.57 2.3 3.14 4.58 4.71 6.88h6.15c-1.98-2.49-3.96-4.98-5.94-7.48zm-1.43-3.72c-.5.84-1.93 1.3-3.59 1.11l-.03-4.42c1.67-.28 3.14.17 3.64 1.05.34.59.32 1.21.32 1.21s-.02.54-.34 1.05z" class="st0"/><path d="M126.91 36.24s-.02.54-.34 1.06c-.5.84-1.93 1.3-3.59 1.11l-.03-4.42c1.67-.28 3.14.17 3.64 1.05.34.58.32 1.2.32 1.2z" class="st1"/></g></svg>