<svg xmlns="http://www.w3.org/2000/svg" viewBox="0 0 135 50"><path fill="#fff" d="M14.79.9c6.14 0 11.26 3.96 11.26 10.25 0 3.73-1.63 6.14-3.81 7.92-1.94 1.4-3.88 2.41-7.15 3.88v.23c4.89.16 9.01 2.02 11.03 4.27 1.79 2.1 2.41 4.43 2.41 7.3 0 4.35-1.55 7.38-3.88 9.71-2.41 2.33-6.06 4.12-11.18 4.12-8.15 0-12.58-4.66-12.58-8.15 0-1.55 1.01-2.56 2.25-2.56.85 0 1.16.54 1.4 1.48.85 5.59 4.04 8.08 9.16 8.08 7.46 0 10.1-5.59 10.02-12.66 0-5.75-2.64-10.56-10.02-10.56-1.63 0-3.18.31-4.04.62l-1.16-.7.16-.31c1.79-.31 4.04-.78 5.59-1.55 2.49-1.01 7.22-3.26 7.22-11.03 0-4.66-2.33-9.01-7.46-9.01-4.74 0-8.08 2.02-8.08 7.3 0 .7.08 1.55.31 2.33.08.31 0 .78-.39 1.16-.31.31-.78.54-1.4.54-1.24 0-2.1-1.09-2.1-2.95C2.28 6.34 7.25.9 14.79.9zm31.76 0c4.04 0 6.83 1.71 9.09 4.58 3.34 4.35 4.5 11.88 4.5 18.8-.08 11.18-2.87 17.71-6.21 20.97-2.64 2.56-5.98 3.34-8.15 3.34-3.11 0-6.21-1.16-8.54-3.88-3.73-4.27-5.13-11.65-5.13-19.8.08-8.47 2.02-16.85 7.07-21.2C41.27 1.91 43.99.9 46.55.9zm-.31 1.09c-2.8 0-4.5 1.24-6.06 4.04-2.02 3.49-3.42 11.96-3.42 18.41 0 8 .85 14.29 2.87 18.33 1.4 2.72 3.57 4.66 6.6 4.66 2.95 0 4.74-1.4 6.37-4.27 2.02-3.57 3.11-10.25 3.11-18.56 0-9.55-1.32-15.46-3.03-18.64-1.47-2.73-3.57-3.97-6.44-3.97zm32.31 19.18L70.4 10.53v10.64h-1.71V.82h1.71v9.4l7.69-9.4h1.86l-7.77 9.48 8.39 10.95h-2.02v-.08zm14.6-2.33s-1.55 2.72-5.13 2.72c-3.42 0-5.9-2.33-5.9-6.68 0-4.5 2.8-6.76 6.06-6.76 4.04 0 5.44 3.42 5.51 6.83h-9.94c0 3.03 1.24 5.2 4.19 5.2s4.27-2.25 4.27-2.25l.94.94zm-1.4-5.28c-.31-2.72-1.63-4.04-3.88-4.04-2.41 0-3.81 1.63-4.12 4.04h8zm13.98 7.61v-8.08c0-1.55-.39-2.33-.85-2.8-.54-.54-1.24-.7-1.94-.7-1.79 0-4.19 1.09-4.19 4.58v6.99h-1.63V8.51h1.32l.31 1.94s.85-2.33 4.35-2.33c1.16 0 2.25.23 3.03 1.01.85.78 1.24 1.94 1.24 3.88v8.23h-1.63v-.07zm11.65-.31c-.62.47-1.4.7-2.41.7-1.55 0-2.64-.62-2.64-3.26V9.83h-2.1v-1.4h2.1V4.32h1.63v4.12h3.42v1.4h-3.42v7.92c0 1.94.16 2.41 1.09 2.41.7 0 1.32-.23 1.79-.47l.54 1.16zm-49.24 23.3c.85.85 2.72 2.25 5.82 2.25 2.17 0 4.66-.7 4.66-3.65 0-2.25-1.55-3.34-3.57-4.12l-2.1-.85c-3.65-1.48-5.51-2.72-5.51-5.59 0-3.49 2.8-5.36 6.52-5.36 2.56 0 4.35.85 5.51 1.63l-.85 1.4c-.93-.7-2.49-1.4-4.74-1.4-2.02 0-4.74.62-4.74 3.49 0 2.1 1.4 2.95 4.12 4.12l2.1.85c3.26 1.32 5.05 2.72 5.05 5.59 0 2.95-1.94 5.51-6.45 5.51-3.65 0-5.9-1.71-6.76-2.56l.94-1.31zm21.2 3.11c-.62.47-1.4.7-2.41.7-1.55 0-2.64-.62-2.64-3.26v-8.47h-2.1v-1.4h2.1v-4.12h1.63v4.12h3.42v1.4h-3.42v7.92c0 1.94.16 2.41 1.09 2.41.7 0 1.32-.23 1.79-.47l.54 1.17zm3.03.31V34.92h1.32l.31 2.02c.39-.85 1.16-2.25 3.03-2.25 1.63 0 2.25 1.09 2.25 1.09l-.7 1.16s-.78-.85-1.86-.85c-1.48 0-2.72 1.4-2.72 4.58v6.99h-1.63v-.08zm18.72-2.33s-1.55 2.72-5.13 2.72c-3.42 0-5.9-2.33-5.9-6.68 0-4.5 2.8-6.76 6.06-6.76 4.04 0 5.44 3.42 5.51 6.83h-9.94c0 3.03 1.24 5.2 4.19 5.2s4.27-2.25 4.27-2.25l.94.94zm-1.32-5.28c-.31-2.72-1.63-4.04-3.88-4.04-2.41 0-3.81 1.63-4.12 4.04h8zm14.99 5.28s-1.55 2.72-5.13 2.72c-3.42 0-5.9-2.33-5.9-6.68 0-4.5 2.8-6.76 6.06-6.76 4.04 0 5.44 3.42 5.51 6.83h-9.94c0 3.03 1.24 5.2 4.19 5.2s4.27-2.25 4.27-2.25l.94.94zm-1.32-5.28c-.31-2.72-1.63-4.04-3.88-4.04-2.41 0-3.81 1.63-4.12 4.04h8zm10.41 7.3c-.62.47-1.4.7-2.41.7-1.55 0-2.64-.62-2.64-3.26v-8.47h-2.1v-1.4h2.1v-4.12h1.63v4.12h3.42v1.4h-3.42v7.92c0 1.94.16 2.41 1.09 2.41.7 0 1.32-.23 1.79-.47l.54 1.17z"/></svg>