<svg xmlns="http://www.w3.org/2000/svg" xmlns:xlink="http://www.w3.org/1999/xlink" xml:space="preserve" id="Layer_1" x="0" y="0" version="1.1" viewBox="0 0 135 50"><style>.st1{fill:#fff}</style><defs><path id="SVGID_1_" d="M0 26h134.1v24H0z"/></defs><clipPath id="SVGID_00000099655472944902499310000012091455505480642210_"><use xlink:href="#SVGID_1_" overflow="visible"/></clipPath><g clip-path="url(#SVGID_00000099655472944902499310000012091455505480642210_)"><path d="M0 27.18h3.41v4.91h.04c.92-.85 2.14-1.3 3.39-1.26 3.04 0 5.08 1.91 5.08 4.69v6.05h-3.4v-5.4c0-1.52-.89-2.37-2.48-2.37-1.6 0-2.62.94-2.62 2.37v5.4H0V27.18zm13.56 11.45c0-1.91 1.38-2.92 4.71-3.37 1.95-.28 2.52-.55 2.52-1.06 0-.56-.67-.96-1.66-.96-1.3 0-2.23.67-2.46 1.78l-3.13-.55c.37-2.19 2.64-3.73 5.48-3.73 3.23.02 5.24 1.69 5.24 4.34v6.51h-3.09v-1.05h-.04c-.77.85-2.03 1.34-3.57 1.34-2.44-.02-4-1.28-4-3.25zm7.41-1.03v-1.04h-.04c-.22.31-.71.51-1.97.77-1.58.32-2.11.59-2.11 1.12 0 .53.47.79 1.46.79 1.46 0 2.66-.75 2.66-1.64zm16.95.81 3.2-.91c.36 1.18 1.44 1.81 3.08 1.81 1.38 0 2.15-.25 2.15-.71s-.61-.77-2.68-1.08c-3.66-.55-5.17-1.52-5.17-3.41 0-2.01 2.04-3.37 5.13-3.37 2.78 0 5.13 1.3 5.74 3.16l-3.07.91c-.35-.89-1.46-1.48-2.8-1.48-1.1 0-1.73.27-1.73.73 0 .46.51.65 2.78 1.01 3.58.61 5.14 1.51 5.14 3.46 0 2.09-2.13 3.41-5.6 3.41-3.15 0-5.6-1.42-6.17-3.53zm18.1-4.55v3.77c0 .63.26.87.99.87h1.95v3.07H56.5c-2.72 0-3.88-1.2-3.88-3.62v-4.07h-2.44v-2.75h2.44v-2.7h3.41v2.7h3.33v2.74h-3.34zm4.3 4.77c0-1.91 1.38-2.92 4.71-3.37 1.95-.28 2.52-.55 2.52-1.06 0-.57-.67-.95-1.68-.95-1.3 0-2.23.67-2.46 1.78l-3.11-.57c.37-2.19 2.64-3.73 5.48-3.73 3.23 0 5.24 1.66 5.24 4.32v6.51h-3.09v-1.04h-.04c-.79.87-2.04 1.34-3.57 1.34-2.44 0-4-1.26-4-3.23zm7.4-1.03v-1.04h-.04c-.22.31-.71.51-1.97.77-1.58.32-2.11.59-2.11 1.12 0 .53.47.79 1.46.79 1.46 0 2.66-.75 2.66-1.64zm4.89-1.26c0-3.23 2.54-5.6 5.95-5.6 2.76 0 4.99 1.52 5.6 3.75l-3.17.97c-.15-.53-.47-.99-.91-1.3a2.34 2.34 0 0 0-1.53-.43c-1.5 0-2.54 1.05-2.54 2.62 0 1.58 1.04 2.62 2.54 2.62.54.04 1.09-.12 1.53-.43.45-.32.77-.78.91-1.3l3.17.96c-.61 2.23-2.85 3.75-5.6 3.75-3.4-.01-5.95-2.38-5.95-5.61zm13.23-9.16h3.41v7.74h.04l4.32-3.81h4.67l-4.97 4.25 5.02 6.21h-4.02l-3.26-4.2h-.04l-1.77 1.46v2.74h-3.41l.01-14.39z" class="st1"/><path d="m98.14 38.41 3.19-.91c.35 1.18 1.44 1.81 3.07 1.81 1.38 0 2.15-.25 2.15-.71s-.61-.77-2.68-1.08c-3.66-.55-5.17-1.52-5.17-3.41 0-2.01 2.04-3.37 5.13-3.37 2.78 0 5.13 1.3 5.74 3.16l-3.07.91c-.35-.89-1.46-1.48-2.8-1.48-1.1 0-1.73.27-1.73.73 0 .46.51.65 2.78 1.01 3.59.59 5.13 1.51 5.13 3.47 0 2.09-2.13 3.41-5.6 3.41-3.12-.01-5.57-1.43-6.14-3.54zm13.82-.47h3.73v3.62h-3.73v-3.62zm6.05.69c0-1.91 1.38-2.92 4.71-3.37 1.95-.28 2.52-.55 2.52-1.06 0-.56-.66-.96-1.68-.96-1.3 0-2.23.67-2.46 1.78l-3.11-.55c.37-2.19 2.64-3.73 5.48-3.73 3.23 0 5.24 1.66 5.24 4.32v6.51h-3.09v-1.04h-.04c-.79.87-2.04 1.34-3.57 1.34-2.44-.01-4-1.27-4-3.24zm7.41-1.03v-1.04h-.02c-.22.31-.71.51-1.97.77-1.58.32-2.11.59-2.11 1.12 0 .53.47.79 1.46.79 1.44 0 2.64-.75 2.64-1.64zm5.27-11.29h3.41v3.19h-3.41v-3.19zm0 4.81h3.41v10.45h-3.41V31.12zm-99.71 5.46-2.48-5.46h-3.8l4.67 9.42 1.61-3.96zm-2.44 10.39c.06 0 .11-.05.11-.11s-.05-.11-.11-.11-.11.05-.11.11.05.11.11.11z" class="st1"/><path d="M37.6 28.58h-.02c-.19-.09-.4-.15-.62-.16-.21-.01-.43.02-.63.1s-.38.19-.54.34c-.15.15-.27.33-.36.53L27.2 49.92c0 .01-.01.01-.01.02v.02c0 .01.01.01.01.02s.01.01.02.01.01.01.02.01h.02c.01 0 .01-.01.02-.01s.01-.01.01-.02l10.97-19.18c.11-.19.18-.39.2-.61s.01-.43-.06-.64c-.06-.21-.17-.4-.31-.56-.12-.17-.29-.3-.49-.4zm-.29 1.99-.48.84c-.03.07-.08.12-.13.17-.05.05-.12.09-.19.11-.14.05-.29.04-.42-.02a.555.555 0 0 1-.28-.32.555.555 0 0 1 .02-.42l.36-.9c.03-.08.08-.15.14-.21a.596.596 0 0 1 .46-.18c.08 0 .17.02.24.06.08.04.14.09.2.15s.1.14.12.22.03.17.03.25c-.01.1-.03.18-.07.25z" class="st1"/></g></svg>