<svg xmlns="http://www.w3.org/2000/svg" xml:space="preserve" id="Layer_2_00000139980763481596089840000017488855216347278472_" x="0" y="0" version="1.1" viewBox="0 0 2580.8 1095.6"><style>.st0{fill:#fff}</style><path d="M1295 189.9c20.3-20.8 31.7-48.3 31.7-77.3 0-60-48.3-109.4-110.3-112.4L700.7 0v675h512.6l12-.5c134-7.6 241.6-117.6 241.6-249 0-106.2-70-200.9-171.9-235.6zM751.3 26H1195c66 0 86 52 86 86.6 0 34.9-20 81.4-94 81.4H751.3V26zM1191 650H751.3V216h461.5c112.2 1.3 203.5 100.3 203.5 209.4 0 109.2-90.3 219.6-225.3 224.6zM1996.3 4.3h50.7v668h-50.7zM317.1.7l-170.7 522h26.3l44.5-135.9c16.9-4.9 45.6-11 69.6-5.4 10.5 2.4 20.3 4.9 29.8 7.3 25.4 6.4 45.7 11.5 62.7 11.5 1 0 2.1 0 3.1-.1 14.3-.5 27.3-3.2 37.1-5.9l43 128.4 53.3.1L347 .7h-29.9zm96 374.6c-8.6 2.2-19.6 4.4-31.5 4.9-14.7.6-34.8-4.5-60.1-10.8-9.6-2.4-19.4-4.9-30.2-7.4-22.7-5.2-47.8-2-66.7 2.3l91.3-278.8 96.9 288.8.3 1zM2364.8 4.4l-25.5-.3-218.6 668.3h36.3l65.2-201.6c18-5.8 57.6-16.2 90.1-8.7 12.4 2.9 23.9 5.7 35 8.5 29.7 7.5 53.5 13.4 73.2 13.4 1.2 0 2.4 0 3.5-.1 15.4-.6 29.5-3.3 40.6-6.1l8.9 27.4 54 167.1 53.3.1-216-668zm58.5 459.7c-17.5.7-41.2-5.3-71.1-12.8-11.2-2.8-22.8-5.7-35.4-8.6-30.4-7-64.6-.9-87.1 5.1l110.4-341.7 117.7 350.8.6 1.9c-9.8 2.5-22 4.8-35.1 5.3zM1684.2 4l-218.6 668.3h36.3l65.2-201.6c18-5.8 57.6-16.2 90.1-8.7 12.4 2.9 23.9 5.7 35 8.5 29.7 7.5 53.5 13.4 73.2 13.4 1.2 0 2.4 0 3.5-.1 15.4-.6 29.5-3.3 40.6-6.1l8.9 27.4 54 167.1 53.3.1-216-668-25.5-.3zm119.1 454.7c-9.8 2.5-22.1 4.7-35.2 5.2-17.5.7-41.2-5.3-71.1-12.8-11.2-2.8-22.8-5.7-35.4-8.6-30.4-7-64.6-.9-87.1 5.1L1685 106l117.7 350.8.6 1.9z" class="st0"/><path d="M269.2 649.6c-21.2-5-41.1-10.2-64.9-15.3-52.7-11.4-112.1-2.5-153.6 7.2V.2H0v642L.1 678l3.2-1.1.1.5c1.1-.4 109.6-40.1 194.4-21.8 23.6 5.1 45.4 10.2 66.5 15.2 55.7 13.1 100.3 23.6 136.6 23.6 2.1 0 4.3 0 6.3-.1 45.5-1.6 85.3-12.8 105.3-19 .2-.1.2-22.8.2-22.8-15.8 5-57.9 18.3-106.3 20.1-34.5 1.2-79.8-9.4-137.2-23zM854.3 1014c0 15.4.2 31.5.4 45.3l-.4.2c-9-12.5-18.3-25.1-27.5-37.2l-66.7-88.4h-19.8v159.3h20.2v-80.1c0-15.4-.2-31.5-.4-45.3l.4-.2c9 12.5 18.3 25.1 27.5 37.2l66.7 88.4h19.8V933.9h-20.2v80.1zm215.9-82.5c-46.2 0-81 35.9-81 82.1s34.8 82.1 81 82.1 81-35.9 81-82.1-34.8-82.1-81-82.1zm0 144.8c-34.8 0-60.1-27.7-60.1-62.7s25.3-62.7 60.1-62.7 60.1 27.7 60.1 62.7c-.1 35-25.4 62.7-60.1 62.7zm284.6-59.9c12.1-7.3 20.5-20.2 20.5-37.4 0-17.6-8.8-29.9-22-37.2-13-7.3-28.4-7.9-44.4-7.9h-43.1v159.3h20.9V1025h27.1l48.6 68.2h25.3l-51-70.2c6.5-1.1 12.4-3 18.1-6.6zm-68.2-8.5v-55h20.7c15.4 0 25.5.7 34.1 5.3 8.4 4.6 13 12.5 13 22.7 0 8.8-3.5 15.4-9.5 19.8-7.3 5.5-17.2 7.3-31.2 7.3h-27.1zm195.8-55h53.5v140.3h20.9V952.9h53.4v-19h-127.8zM1828 1001h-86.6v-67.1h-20.9v159.3h20.9V1020h86.6v73.2h20.9V933.9H1828z" class="st0"/></svg>