<svg xmlns="http://www.w3.org/2000/svg" width="414" height="92" fill="none"><g fill="#fff" clip-path="url(#a)"><path d="M279.652 9.385c-8.916 0-17.006 0-21.87.006-4.857 0-12.954 0-21.869-.006-1.133 0-1.112 0-1.112 1.764 0 .805.648.65 1.037.657 5.191.027 9.045.027 14.236.034h.02c1.692 0 3.063 1.087 3.063 2.428v72.829c.328 0 3.718-.027 5.041-.027 1.037 0 2.067.007 3.09.033.812.02 1.112-.234 1.112-1.22V14.267c0-1.341 1.371-2.428 3.063-2.435h.014c5.191 0 9.045 0 14.236-.033.396 0 1.037.147 1.037-.658 0-1.764.02-1.764-1.112-1.764l.014.007zM44.844 8.929c-8.916 0-17.006 0-21.87.006-4.856 0-12.953 0-21.869-.006-1.132 0-1.112 0-1.112 1.764 0 .805.648.65 1.037.657 5.191.027 9.045.027 14.236.034h.02c1.693 0 3.064 1.086 3.064 2.428v72.829c.327 0 3.717-.027 5.04-.027 1.037 0 2.067.006 3.09.033.813.02 1.113-.235 1.113-1.22V13.811c0-1.342 1.37-2.428 3.062-2.435h.014c5.191 0 9.045 0 14.236-.034.396 0 1.037.148 1.037-.657 0-1.764.02-1.764-1.112-1.764l.014.007zM99.088 87.11c-3.213 0-6.303.014-9.393-.027-.239 0-.587-.342-.703-.63-4.283-10.76-8.601-21.506-12.763-32.333-.873-2.274-1.63-2.931-3.983-2.931-2.354 0-4.42.067-6.63.074-.219 0-.444.02-.82.04v35.74h-9.215c-.02-.329-.055-.65-.055-.98v-74.13c0-2.488 0-2.481 2.135-2.481 5.983 0 11.972-.027 17.955.013 3.874.027 7.687.537 11.303 2.388 5.539 2.838 8.486 7.943 9.216 14.973.525 5.057-.185 9.847-2.456 14.2-2.558 4.91-6.03 7.607-10.648 9.05 0 0 3.656 7.264 4.863 10.068 1.774 4.112 3.41 8.304 5.143 12.443 1.958 4.682 3.943 9.351 5.915 14.02.047.114.061.242.123.51l.013-.007zM64.763 48.62c2.53 0 4.938.107 7.333-.034 1.882-.107 3.8-.308 5.62-.852 3.425-1.033 5.983-3.521 7.381-7.452 1.876-5.28 2.006-10.767 1.058-16.3-1.126-6.554-4.796-10.928-10.314-11.746-3.5-.517-7.074-.35-10.614-.35-.458 0-.437.397-.437.611-.02 11.994-.02 23.988-.02 36.123h-.007zm316.362 38.49h-8.609c-.573 0-.525-.456-.525-.899V11.887c0-2.455 0-2.449 2.087-2.449 5.73 0 11.46-.04 17.19 0 2.947.014 5.874.175 8.78.98 6.848 1.898 11.432 6.58 13.138 14.858 1.405 6.788 1.084 13.43-1.685 19.695-2.306 5.225-6.058 8.33-10.785 9.9-2.926.966-5.894 1.282-8.916 1.201-2.101-.053-4.195-.033-6.296 0-2.599.047-3.915 1.429-4.27 4.468-.095.798-.102 1.616-.102 2.428-.007 7.64 0 15.274 0 22.914v1.235l-.007-.007zm0-33.58c3.465 0 6.76.154 10.034-.034 6.399-.369 10.546-4.91 12.238-11.812 1.023-4.18 1.091-8.473.791-12.766-.218-3.112-.846-6.13-2.114-8.901-2.252-4.91-5.683-7.734-10.424-7.983-3.199-.167-6.405-.1-9.611-.194-.771-.02-.928.302-.928 1.167.021 12.88.014 25.759.014 38.638v1.885zm-259.096-4.776c-.028.698-.069 1.301-.069 1.905.021 11.021.048 22.036.048 33.057 0 .845.341.818.839.818 7.517 0 15.035.014 22.552.027.655 0 1.303.047 1.958.027.436-.013.627.181.614.704-.014.302 0 .61.02.912.068.712-.184.926-.778.926-11.235-.02-22.469-.02-33.704 0-.662 0-.798-.275-.798-1.006.013-24.679.006-49.357.013-74.03 0-.858-.17-2.005.212-2.501.334-.43 1.33-.141 2.039-.141 9.987-.007 19.973-.014 29.96-.014.969 0 1.548 1.181 1.01 2.14-.123.215-.539.269-.819.269-5.955.013-11.917.013-17.872.013-1.535 0-3.063.02-4.598-.013-.546-.014-.709.154-.709.858 0 8.62-.034 17.24-.034 25.86 0 1.106.102 2.233.313 3.313.314 1.63 1.208 2.643 2.634 2.878.559.094 1.125.174 1.691.174 5.137.014 10.266.007 15.403.007h.996c0 1.087.034 2.093-.027 3.092-.014.235-.341.604-.553.631-.702.087-1.419.06-2.121.06-5.874 0-11.747-.006-17.613-.013-.164 0-.335.02-.614.047h.007zm70.649-3.81c0 1.066-.02 1.979.007 2.884.021.671-.218.886-.75.879-1.644-.014-3.288.007-4.939.007-4.877 0-9.761 0-14.639-.007-.163 0-.334.02-.593.04-.034.65-.096 1.275-.096 1.898.014 11.022.048 22.036.048 33.057 0 .839.334.826.839.826 7.517 0 15.034.013 22.552.026.655 0 1.303.047 1.957.027.437-.013.635.175.621.698-.007.369.096.778 0 1.107-.082.288-.361.51-.593.71-.096.081-.273.014-.416.014-11.065 0-22.129-.013-33.193.027-.901 0-1.065-.322-1.065-1.315.021-24.068.014-48.136 0-72.205 0-1.08.014-2.166-.02-3.246-.021-.664.109-.953.75-.953 10.498.027 20.99.014 31.488.02.976 0 1.549 1.16 1.016 2.133-.116.215-.538.276-.818.276-5.587.013-11.18.013-16.767.013-1.903 0-3.8.013-5.703-.013-.532-.007-.716.14-.716.851 0 8.654-.034 17.307-.034 25.96 0 1.074.109 2.167.307 3.213.313 1.63 1.207 2.65 2.633 2.885.586.094 1.18.174 1.773.181 5.11.013 10.212.007 15.321.007h1.03zm122.565 23.833c-11.807 1.013-25.982-1.456-33.35-11.725-5-7.171-3.82-16.106 1.406-22.794 12.415-17.42 12.155-36.029 39.762-34.124 12.961.765 23.929 9.17 30.266 20.03 6.474 10.807 9.469 25.175 2.586 36.592-3.991 7.138-11.392 11.17-19.455 11.726-7.108.624-14.209-.41-21.215.288v.007zm-.088-.798c8.786-.886 18.929-.986 26.33-5.863 5.035-3.24 7.634-8.405 9.121-13.885 1.344-6.051.048-12.45-1.965-18.407-2.913-8.399-8.411-15.985-15.976-20.902-6.726-4.3-15.491-6.567-23.384-4.696-14.788 4.206-13.37 22.445-20.198 33.614-1.923 3.206-3.383 6.97-3.008 10.72.259 3.521 2.046 7.096 4.836 10.222 5.908 6.634 15.274 10.223 24.251 9.204l-.007-.007z"/><path d="m335.142 42.717-1.617-2.16-16.099 11.638V36.257h-6.139V92h6.139V55.522l17.716-12.805z"/></g><defs><clipPath id="a"><path fill="#fff" d="M0 0h414v92H0z"/></clipPath></defs></svg>